<svg width="215" height="32" viewBox="0 0 215 32" fill="none" xmlns="http://www.w3.org/2000/svg">
<g clip-path="url(#clip0)">
<path fill-rule="evenodd" clip-rule="evenodd" d="M0 16C0 7.16002 7.16002 0 16 0C24.84 0 32 7.16002 31.9999 16C31.9999 24.832 24.8399 31.9999 16 31.9999C7.16002 31.9999 0 24.832 0 16ZM6.39997 25.6L19.504 19.504L25.6 6.39997L12.496 12.496L6.39997 25.6ZM17.76 16C17.76 16.968 16.9759 17.76 16 17.76C15.032 17.76 14.2399 16.968 14.2399 16C14.2399 15.0319 15.0319 14.2399 16 14.2399C16.976 14.2399 17.76 15.0319 17.76 16Z" fill="#121214"/>
<path d="M50.162 18.862H51.908V24.694C51.764 24.742 51.554 24.796 51.278 24.856C51.014 24.916 50.702 24.976 50.342 25.036C49.994 25.096 49.61 25.144 49.19 25.18C48.77 25.228 48.344 25.252 47.912 25.252C47.036 25.252 46.238 25.108 45.518 24.82C44.798 24.532 44.18 24.112 43.664 23.56C43.148 23.008 42.746 22.33 42.458 21.526C42.182 20.722 42.044 19.798 42.044 18.754C42.044 17.71 42.2 16.786 42.512 15.982C42.836 15.166 43.268 14.482 43.808 13.93C44.348 13.378 44.978 12.958 45.698 12.67C46.43 12.382 47.21 12.238 48.038 12.238C48.602 12.238 49.1 12.274 49.532 12.346C49.976 12.418 50.354 12.502 50.666 12.598C50.978 12.694 51.23 12.79 51.422 12.886C51.626 12.982 51.764 13.054 51.836 13.102L51.278 14.56C50.93 14.332 50.468 14.146 49.892 14.002C49.316 13.846 48.728 13.768 48.128 13.768C47.492 13.768 46.91 13.882 46.382 14.11C45.866 14.338 45.422 14.668 45.05 15.1C44.69 15.532 44.408 16.06 44.204 16.684C44 17.296 43.898 17.986 43.898 18.754C43.898 19.498 43.982 20.176 44.15 20.788C44.33 21.4 44.594 21.928 44.942 22.372C45.302 22.804 45.74 23.14 46.256 23.38C46.784 23.62 47.402 23.74 48.11 23.74C48.614 23.74 49.04 23.716 49.388 23.668C49.748 23.608 50.006 23.554 50.162 23.506V18.862ZM56.2078 25H54.5338V15.64H56.2078V25ZM55.3618 13.948C55.0618 13.948 54.8038 13.852 54.5878 13.66C54.3838 13.456 54.2817 13.186 54.2817 12.85C54.2817 12.514 54.3838 12.25 54.5878 12.058C54.8038 11.854 55.0618 11.752 55.3618 11.752C55.6618 11.752 55.9138 11.854 56.1178 12.058C56.3338 12.25 56.4418 12.514 56.4418 12.85C56.4418 13.186 56.3338 13.456 56.1178 13.66C55.9138 13.852 55.6618 13.948 55.3618 13.948ZM60.6525 15.64H64.1985V17.044H60.6525V21.364C60.6525 21.832 60.6885 22.222 60.7605 22.534C60.8325 22.834 60.9405 23.074 61.0845 23.254C61.2285 23.422 61.4085 23.542 61.6245 23.614C61.8405 23.686 62.0925 23.722 62.3805 23.722C62.8845 23.722 63.2865 23.668 63.5865 23.56C63.8985 23.44 64.1145 23.356 64.2345 23.308L64.5585 24.694C64.3905 24.778 64.0965 24.88 63.6765 25C63.2565 25.132 62.7765 25.198 62.2365 25.198C61.6005 25.198 61.0725 25.12 60.6525 24.964C60.2445 24.796 59.9145 24.55 59.6625 24.226C59.4105 23.902 59.2305 23.506 59.1225 23.038C59.0265 22.558 58.9785 22.006 58.9785 21.382V13.03L60.6525 12.742V15.64ZM66.3287 25V11.32L68.0027 11.032V15.82C68.3147 15.7 68.6447 15.61 68.9927 15.55C69.3527 15.478 69.7067 15.442 70.0547 15.442C70.7987 15.442 71.4167 15.55 71.9087 15.766C72.4007 15.97 72.7907 16.264 73.0787 16.648C73.3787 17.02 73.5887 17.47 73.7087 17.998C73.8287 18.526 73.8887 19.108 73.8887 19.744V25H72.2147V20.104C72.2147 19.528 72.1727 19.036 72.0887 18.628C72.0167 18.22 71.8907 17.89 71.7107 17.638C71.5307 17.386 71.2907 17.206 70.9907 17.098C70.6907 16.978 70.3187 16.918 69.8747 16.918C69.6947 16.918 69.5087 16.93 69.3167 16.954C69.1247 16.978 68.9387 17.008 68.7587 17.044C68.5907 17.068 68.4347 17.098 68.2907 17.134C68.1587 17.17 68.0627 17.2 68.0027 17.224V25H66.3287ZM84.0639 24.73C83.6799 24.826 83.1699 24.928 82.5339 25.036C81.9099 25.144 81.1839 25.198 80.3559 25.198C79.6359 25.198 79.0299 25.096 78.5379 24.892C78.0459 24.676 77.6499 24.376 77.3499 23.992C77.0499 23.608 76.8339 23.158 76.7019 22.642C76.5699 22.114 76.5039 21.532 76.5039 20.896V15.64H78.1779V20.536C78.1779 21.676 78.3579 22.492 78.7179 22.984C79.0779 23.476 79.6839 23.722 80.5359 23.722C80.7159 23.722 80.9019 23.716 81.0939 23.704C81.2859 23.692 81.4659 23.68 81.6339 23.668C81.8019 23.644 81.9519 23.626 82.0839 23.614C82.2279 23.59 82.3299 23.566 82.3899 23.542V15.64H84.0639V24.73ZM88.6218 16.054C88.8258 15.922 89.1318 15.784 89.5398 15.64C89.9598 15.496 90.4398 15.424 90.9798 15.424C91.6518 15.424 92.2458 15.544 92.7618 15.784C93.2898 16.024 93.7338 16.36 94.0938 16.792C94.4538 17.224 94.7238 17.74 94.9038 18.34C95.0958 18.94 95.1918 19.6 95.1918 20.32C95.1918 21.076 95.0778 21.76 94.8498 22.372C94.6338 22.972 94.3218 23.482 93.9138 23.902C93.5058 24.322 93.0138 24.646 92.4378 24.874C91.8618 25.102 91.2138 25.216 90.4938 25.216C89.7138 25.216 89.0238 25.162 88.4238 25.054C87.8238 24.946 87.3318 24.838 86.9478 24.73V11.32L88.6218 11.032V16.054ZM88.6218 23.542C88.7898 23.59 89.0238 23.638 89.3238 23.686C89.6358 23.722 90.0198 23.74 90.4758 23.74C91.3758 23.74 92.0958 23.446 92.6358 22.858C93.1758 22.258 93.4458 21.412 93.4458 20.32C93.4458 19.84 93.3978 19.39 93.3018 18.97C93.2058 18.55 93.0498 18.19 92.8338 17.89C92.6178 17.578 92.3358 17.338 91.9878 17.17C91.6518 16.99 91.2438 16.9 90.7638 16.9C90.3078 16.9 89.8878 16.978 89.5038 17.134C89.1198 17.29 88.8258 17.452 88.6218 17.62V23.542Z" fill="#737380"/>
<path d="M107.446 23.758C109.27 23.758 110.182 23.134 110.182 21.886C110.182 21.502 110.098 21.178 109.93 20.914C109.774 20.638 109.558 20.404 109.282 20.212C109.006 20.008 108.688 19.834 108.328 19.69C107.98 19.546 107.608 19.402 107.212 19.258C106.756 19.102 106.324 18.928 105.916 18.736C105.508 18.532 105.154 18.298 104.854 18.034C104.554 17.758 104.314 17.434 104.134 17.062C103.966 16.69 103.882 16.24 103.882 15.712C103.882 14.62 104.254 13.768 104.998 13.156C105.742 12.544 106.768 12.238 108.076 12.238C108.832 12.238 109.516 12.322 110.128 12.49C110.752 12.646 111.208 12.82 111.496 13.012L110.938 14.434C110.686 14.278 110.308 14.128 109.804 13.984C109.312 13.828 108.736 13.75 108.076 13.75C107.74 13.75 107.428 13.786 107.14 13.858C106.852 13.93 106.6 14.038 106.384 14.182C106.168 14.326 105.994 14.512 105.862 14.74C105.742 14.956 105.682 15.214 105.682 15.514C105.682 15.85 105.748 16.132 105.88 16.36C106.012 16.588 106.198 16.792 106.438 16.972C106.678 17.14 106.954 17.296 107.266 17.44C107.59 17.584 107.944 17.728 108.328 17.872C108.868 18.088 109.36 18.304 109.804 18.52C110.26 18.736 110.65 18.994 110.974 19.294C111.31 19.594 111.568 19.954 111.748 20.374C111.928 20.782 112.018 21.28 112.018 21.868C112.018 22.96 111.616 23.8 110.812 24.388C110.02 24.976 108.898 25.27 107.446 25.27C106.954 25.27 106.498 25.234 106.078 25.162C105.67 25.102 105.304 25.03 104.98 24.946C104.656 24.85 104.374 24.754 104.134 24.658C103.906 24.55 103.726 24.46 103.594 24.388L104.116 22.948C104.392 23.104 104.812 23.278 105.376 23.47C105.94 23.662 106.63 23.758 107.446 23.758ZM113.498 20.338C113.498 19.51 113.618 18.79 113.858 18.178C114.098 17.554 114.416 17.038 114.812 16.63C115.208 16.222 115.664 15.916 116.18 15.712C116.696 15.508 117.224 15.406 117.764 15.406C119.024 15.406 119.99 15.802 120.662 16.594C121.334 17.374 121.67 18.568 121.67 20.176C121.67 20.248 121.67 20.344 121.67 20.464C121.67 20.572 121.664 20.674 121.652 20.77H115.244C115.316 21.742 115.598 22.48 116.09 22.984C116.582 23.488 117.35 23.74 118.394 23.74C118.982 23.74 119.474 23.692 119.87 23.596C120.278 23.488 120.584 23.386 120.788 23.29L121.022 24.694C120.818 24.802 120.458 24.916 119.942 25.036C119.438 25.156 118.862 25.216 118.214 25.216C117.398 25.216 116.69 25.096 116.09 24.856C115.502 24.604 115.016 24.262 114.632 23.83C114.248 23.398 113.96 22.888 113.768 22.3C113.588 21.7 113.498 21.046 113.498 20.338ZM119.924 19.42C119.936 18.664 119.744 18.046 119.348 17.566C118.964 17.074 118.43 16.828 117.746 16.828C117.362 16.828 117.02 16.906 116.72 17.062C116.432 17.206 116.186 17.398 115.982 17.638C115.778 17.878 115.616 18.154 115.496 18.466C115.388 18.778 115.316 19.096 115.28 19.42H119.924ZM127.243 23.794C127.639 23.794 127.987 23.788 128.287 23.776C128.599 23.752 128.857 23.716 129.061 23.668V20.878C128.941 20.818 128.743 20.77 128.467 20.734C128.203 20.686 127.879 20.662 127.495 20.662C127.243 20.662 126.973 20.68 126.685 20.716C126.409 20.752 126.151 20.83 125.911 20.95C125.683 21.058 125.491 21.214 125.335 21.418C125.179 21.61 125.101 21.868 125.101 22.192C125.101 22.792 125.293 23.212 125.677 23.452C126.061 23.68 126.583 23.794 127.243 23.794ZM127.099 15.406C127.771 15.406 128.335 15.496 128.791 15.676C129.259 15.844 129.631 16.09 129.907 16.414C130.195 16.726 130.399 17.104 130.519 17.548C130.639 17.98 130.699 18.46 130.699 18.988V24.838C130.555 24.862 130.351 24.898 130.087 24.946C129.835 24.982 129.547 25.018 129.223 25.054C128.899 25.09 128.545 25.12 128.161 25.144C127.789 25.18 127.417 25.198 127.045 25.198C126.517 25.198 126.031 25.144 125.587 25.036C125.143 24.928 124.759 24.76 124.435 24.532C124.111 24.292 123.859 23.98 123.679 23.596C123.499 23.212 123.409 22.75 123.409 22.21C123.409 21.694 123.511 21.25 123.715 20.878C123.931 20.506 124.219 20.206 124.579 19.978C124.939 19.75 125.359 19.582 125.839 19.474C126.319 19.366 126.823 19.312 127.351 19.312C127.519 19.312 127.693 19.324 127.873 19.348C128.053 19.36 128.221 19.384 128.377 19.42C128.545 19.444 128.689 19.468 128.809 19.492C128.929 19.516 129.013 19.534 129.061 19.546V19.078C129.061 18.802 129.031 18.532 128.971 18.268C128.911 17.992 128.803 17.752 128.647 17.548C128.491 17.332 128.275 17.164 127.999 17.044C127.735 16.912 127.387 16.846 126.955 16.846C126.403 16.846 125.917 16.888 125.497 16.972C125.089 17.044 124.783 17.122 124.579 17.206L124.381 15.82C124.597 15.724 124.957 15.634 125.461 15.55C125.965 15.454 126.511 15.406 127.099 15.406ZM136.935 15.442C137.079 15.442 137.241 15.454 137.421 15.478C137.613 15.49 137.799 15.514 137.979 15.55C138.159 15.574 138.321 15.604 138.465 15.64C138.621 15.664 138.735 15.688 138.807 15.712L138.519 17.17C138.387 17.122 138.165 17.068 137.853 17.008C137.553 16.936 137.163 16.9 136.683 16.9C136.371 16.9 136.059 16.936 135.747 17.008C135.447 17.068 135.249 17.11 135.153 17.134V25H133.479V16.036C133.875 15.892 134.367 15.76 134.955 15.64C135.543 15.508 136.203 15.442 136.935 15.442ZM144.49 25.216C143.734 25.216 143.068 25.096 142.492 24.856C141.928 24.616 141.448 24.28 141.052 23.848C140.668 23.416 140.38 22.906 140.188 22.318C139.996 21.718 139.9 21.058 139.9 20.338C139.9 19.618 140.002 18.958 140.206 18.358C140.422 17.758 140.722 17.242 141.106 16.81C141.49 16.366 141.958 16.024 142.51 15.784C143.074 15.532 143.698 15.406 144.382 15.406C144.802 15.406 145.222 15.442 145.642 15.514C146.062 15.586 146.464 15.7 146.848 15.856L146.47 17.278C146.218 17.158 145.924 17.062 145.588 16.99C145.264 16.918 144.916 16.882 144.544 16.882C143.608 16.882 142.888 17.176 142.384 17.764C141.892 18.352 141.646 19.21 141.646 20.338C141.646 20.842 141.7 21.304 141.808 21.724C141.928 22.144 142.108 22.504 142.348 22.804C142.6 23.104 142.918 23.338 143.302 23.506C143.686 23.662 144.154 23.74 144.706 23.74C145.15 23.74 145.552 23.698 145.912 23.614C146.272 23.53 146.554 23.44 146.758 23.344L146.992 24.748C146.896 24.808 146.758 24.868 146.578 24.928C146.398 24.976 146.194 25.018 145.966 25.054C145.738 25.102 145.492 25.138 145.228 25.162C144.976 25.198 144.73 25.216 144.49 25.216ZM148.79 25V11.32L150.464 11.032V15.82C150.776 15.7 151.106 15.61 151.454 15.55C151.814 15.478 152.168 15.442 152.516 15.442C153.26 15.442 153.878 15.55 154.37 15.766C154.862 15.97 155.252 16.264 155.54 16.648C155.84 17.02 156.05 17.47 156.17 17.998C156.29 18.526 156.35 19.108 156.35 19.744V25H154.676V20.104C154.676 19.528 154.634 19.036 154.55 18.628C154.478 18.22 154.352 17.89 154.172 17.638C153.992 17.386 153.752 17.206 153.452 17.098C153.152 16.978 152.78 16.918 152.336 16.918C152.156 16.918 151.97 16.93 151.778 16.954C151.586 16.978 151.4 17.008 151.22 17.044C151.052 17.068 150.896 17.098 150.752 17.134C150.62 17.17 150.524 17.2 150.464 17.224V25H148.79Z" fill="#ABABB3"/>
</g>
<defs>
<clipPath id="clip0">
<rect width="215" height="32" fill="white"/>
</clipPath>
</defs>
</svg>
